<?xml version="1.0" encoding="utf-8"?>
<!-- Generator: Adobe Illustrator 14.0.0, SVG Export Plug-In . SVG Version: 6.00 Build 43363)  -->
<!DOCTYPE svg PUBLIC "-//W3C//DTD SVG 1.1//EN" "http://www.w3.org/Graphics/SVG/1.1/DTD/svg11.dtd">
<svg version="1.1" id="Layer_1" xmlns="http://www.w3.org/2000/svg" xmlns:xlink="http://www.w3.org/1999/xlink" x="0px" y="0px"
	 width="390.579px" height="270.29px" viewBox="0 0 390.579 270.29" enable-background="new 0 0 390.579 270.29"
	 xml:space="preserve">
<path fill="#162952" d="M191.85,40.931c-15.971,9.274-28.213,22.277-37.14,38.596c0.85-20.756,7.481-42.038,18.206-55.345
	C184.557,24.436,186.479,34.408,191.85,40.931z"/>
<path fill="#162952" d="M134.32,42.388C79.667,55.813,24.319,84.956,25.814,152.35c0.482,21.748,6.608,37.529,15.292,52.432
	c-0.134,0.62,0.284,0.688,0.729,0.729c-0.323,1.059-0.64-0.074-1.457,0c-19.701-16.818-33.125-40.117-30.585-75.007
	c3.063-42.082,34.926-72.352,64.083-90.3c33.137-20.397,74.154-31.45,121.614-32.77c47.205-1.313,89.125,11.293,123.069,31.313
	c35.639,21.019,71.26,51.288,66.27,108.504c-0.598,6.852-1.338,10.847-3.643,17.479c-14.395,41.467-52.621,69.921-97.581,85.202
	c-45.524,15.474-109.566,19.573-156.568,2.185c-45.486-16.828-78.365-52.349-72.822-107.777
	C59.628,90.207,94.784,69.135,134.32,42.388z M327.299,182.935c-18.93,6.802-38.328,17.017-58.985,19.662
	c12.41-6.687,27.397-12.931,42.235-20.39c21.17-10.645,48.312-18.582,46.607-50.249c-18.211-30.094-61.164-35.447-77.921-66.997
	c-24.237-10.231-50.5-18.439-79.376-24.032c-7.75-8.357-12.219-27.395-27.672-24.759c-10.719,1.828-16.839,23.61-20.39,35.683
	c-4.918,16.721-7.684,33.264-8.739,45.878c13.067-9.72,31.45-18.312,52.432-23.303c20.748-4.936,46.867-8.704,70.638-5.826
	c12.656,1.532,16.061,13.378,23.303,19.662c8.402,7.291,22.234,13.749,34.227,21.847c9.377,6.331,26.953,17.209,27.674,28.4
	c0.639,9.963-6.535,19.248-15.293,21.847c0.604-8.022-0.217-15.235-2.914-20.39c-10.908-20.85-42.186-31.992-66.269-37.868
	c0.104-6.289,1.353-10.438-2.185-13.836c-13.602,2.663-22.918,9.61-34.228,14.564c26.585,2.272,45.873,8.643,63.354,21.119
	c18.1,12.916,30.109,39.778,8.74,55.345c-13.701,9.98-34.369,17.592-56.074,25.488c-37.644,13.69-89.747,16.926-115.787-4.369
	c-3.641-2.979-5.939-8.914-9.467-8.012c1.135,18.848,10.761,32.125,26.216,34.955c21.017,3.848,40.359-2.006,56.074-5.826
	c9.235-2.244,21.953-8.119,30.586-8.738c11.496-0.826,23.686,3.375,34.227,5.098c11.555,1.887,22.664,4.357,36.411,3.641
	C317.19,214.09,323.799,196.913,327.299,182.935z"/>
</svg>
